# Tiled2Unity generated file. Do not modify by hand.
# Wavefront file for 'tut_mesh_0002.obj'

# Vertices (Count = 756)
v -1008 -624 0
v -1024 -624 0
v -1024 -608 0
v -1008 -608 0
v -992 -624 0
v -1008 -624 0
v -1008 -608 0
v -992 -608 0
v -976 -624 0
v -992 -624 0
v -992 -608 0
v -976 -608 0
v -960 -624 0
v -976 -624 0
v -976 -608 0
v -960 -608 0
v -944 -624 0
v -960 -624 0
v -960 -608 0
v -944 -608 0
v -1056 -640 0
v -1072 -640 0
v -1072 -624 0
v -1056 -624 0
v -1040 -640 0
v -1056 -640 0
v -1056 -624 0
v -1040 -624 0
v -1024 -640 0
v -1040 -640 0
v -1040 -624 0
v -1024 -624 0
v -1008 -640 0
v -1024 -640 0
v -1024 -624 0
v -1008 -624 0
v -992 -640 0
v -1008 -640 0
v -1008 -624 0
v -992 -624 0
v -976 -640 0
v -992 -640 0
v -992 -624 0
v -976 -624 0
v -960 -640 0
v -976 -640 0
v -976 -624 0
v -960 -624 0
v -944 -640 0
v -960 -640 0
v -960 -624 0
v -944 -624 0
v -1072 -656 0
v -1088 -656 0
v -1088 -640 0
v -1072 -640 0
v -1056 -656 0
v -1072 -656 0
v -1072 -640 0
v -1056 -640 0
v -1040 -656 0
v -1056 -656 0
v -1056 -640 0
v -1040 -640 0
v -1024 -656 0
v -1040 -656 0
v -1040 -640 0
v -1024 -640 0
v -1008 -656 0
v -1024 -656 0
v -1024 -640 0
v -1008 -640 0
v -992 -656 0
v -1008 -656 0
v -1008 -640 0
v -992 -640 0
v -976 -656 0
v -992 -656 0
v -992 -640 0
v -976 -640 0
v -960 -656 0
v -976 -656 0
v -976 -640 0
v -960 -640 0
v -944 -656 0
v -960 -656 0
v -960 -640 0
v -944 -640 0
v -928 -656 0
v -944 -656 0
v -944 -640 0
v -928 -640 0
v -912 -656 0
v -928 -656 0
v -928 -640 0
v -912 -640 0
v -1088 -672 0
v -1104 -672 0
v -1104 -656 0
v -1088 -656 0
v -1072 -672 0
v -1088 -672 0
v -1088 -656 0
v -1072 -656 0
v -1056 -672 0
v -1072 -672 0
v -1072 -656 0
v -1056 -656 0
v -1040 -672 0
v -1056 -672 0
v -1056 -656 0
v -1040 -656 0
v -1024 -672 0
v -1040 -672 0
v -1040 -656 0
v -1024 -656 0
v -1008 -672 0
v -1024 -672 0
v -1024 -656 0
v -1008 -656 0
v -992 -672 0
v -1008 -672 0
v -1008 -656 0
v -992 -656 0
v -976 -672 0
v -992 -672 0
v -992 -656 0
v -976 -656 0
v -960 -672 0
v -976 -672 0
v -976 -656 0
v -960 -656 0
v -944 -672 0
v -960 -672 0
v -960 -656 0
v -944 -656 0
v -928 -672 0
v -944 -672 0
v -944 -656 0
v -928 -656 0
v -912 -672 0
v -928 -672 0
v -928 -656 0
v -912 -656 0
v -1088 -688 0
v -1104 -688 0
v -1104 -672 0
v -1088 -672 0
v -1072 -688 0
v -1088 -688 0
v -1088 -672 0
v -1072 -672 0
v -1056 -688 0
v -1072 -688 0
v -1072 -672 0
v -1056 -672 0
v -1040 -688 0
v -1056 -688 0
v -1056 -672 0
v -1040 -672 0
v -1024 -688 0
v -1040 -688 0
v -1040 -672 0
v -1024 -672 0
v -1008 -688 0
v -1024 -688 0
v -1024 -672 0
v -1008 -672 0
v -992 -688 0
v -1008 -688 0
v -1008 -672 0
v -992 -672 0
v -976 -688 0
v -992 -688 0
v -992 -672 0
v -976 -672 0
v -960 -688 0
v -976 -688 0
v -976 -672 0
v -960 -672 0
v -944 -688 0
v -960 -688 0
v -960 -672 0
v -944 -672 0
v -928 -688 0
v -944 -688 0
v -944 -672 0
v -928 -672 0
v -912 -688 0
v -928 -688 0
v -928 -672 0
v -912 -672 0
v -1088 -704 0
v -1104 -704 0
v -1104 -688 0
v -1088 -688 0
v -1072 -704 0
v -1088 -704 0
v -1088 -688 0
v -1072 -688 0
v -1056 -704 0
v -1072 -704 0
v -1072 -688 0
v -1056 -688 0
v -1040 -704 0
v -1056 -704 0
v -1056 -688 0
v -1040 -688 0
v -1024 -704 0
v -1040 -704 0
v -1040 -688 0
v -1024 -688 0
v -1008 -704 0
v -1024 -704 0
v -1024 -688 0
v -1008 -688 0
v -992 -704 0
v -1008 -704 0
v -1008 -688 0
v -992 -688 0
v -976 -704 0
v -992 -704 0
v -992 -688 0
v -976 -688 0
v -960 -704 0
v -976 -704 0
v -976 -688 0
v -960 -688 0
v -944 -704 0
v -960 -704 0
v -960 -688 0
v -944 -688 0
v -928 -704 0
v -944 -704 0
v -944 -688 0
v -928 -688 0
v -912 -704 0
v -928 -704 0
v -928 -688 0
v -912 -688 0
v -1104 -720 0
v -1120 -720 0
v -1120 -704 0
v -1104 -704 0
v -1088 -720 0
v -1104 -720 0
v -1104 -704 0
v -1088 -704 0
v -1072 -720 0
v -1088 -720 0
v -1088 -704 0
v -1072 -704 0
v -1056 -720 0
v -1072 -720 0
v -1072 -704 0
v -1056 -704 0
v -1040 -720 0
v -1056 -720 0
v -1056 -704 0
v -1040 -704 0
v -1024 -720 0
v -1040 -720 0
v -1040 -704 0
v -1024 -704 0
v -1008 -720 0
v -1024 -720 0
v -1024 -704 0
v -1008 -704 0
v -992 -720 0
v -1008 -720 0
v -1008 -704 0
v -992 -704 0
v -976 -720 0
v -992 -720 0
v -992 -704 0
v -976 -704 0
v -960 -720 0
v -976 -720 0
v -976 -704 0
v -960 -704 0
v -944 -720 0
v -960 -720 0
v -960 -704 0
v -944 -704 0
v -928 -720 0
v -944 -720 0
v -944 -704 0
v -928 -704 0
v -912 -720 0
v -928 -720 0
v -928 -704 0
v -912 -704 0
v -1104 -736 0
v -1120 -736 0
v -1120 -720 0
v -1104 -720 0
v -1088 -736 0
v -1104 -736 0
v -1104 -720 0
v -1088 -720 0
v -1072 -736 0
v -1088 -736 0
v -1088 -720 0
v -1072 -720 0
v -1056 -736 0
v -1072 -736 0
v -1072 -720 0
v -1056 -720 0
v -1040 -736 0
v -1056 -736 0
v -1056 -720 0
v -1040 -720 0
v -1024 -736 0
v -1040 -736 0
v -1040 -720 0
v -1024 -720 0
v -1008 -736 0
v -1024 -736 0
v -1024 -720 0
v -1008 -720 0
v -992 -736 0
v -1008 -736 0
v -1008 -720 0
v -992 -720 0
v -976 -736 0
v -992 -736 0
v -992 -720 0
v -976 -720 0
v -960 -736 0
v -976 -736 0
v -976 -720 0
v -960 -720 0
v -944 -736 0
v -960 -736 0
v -960 -720 0
v -944 -720 0
v -928 -736 0
v -944 -736 0
v -944 -720 0
v -928 -720 0
v -912 -736 0
v -928 -736 0
v -928 -720 0
v -912 -720 0
v -1104 -752 0
v -1120 -752 0
v -1120 -736 0
v -1104 -736 0
v -1088 -752 0
v -1104 -752 0
v -1104 -736 0
v -1088 -736 0
v -1072 -752 0
v -1088 -752 0
v -1088 -736 0
v -1072 -736 0
v -1056 -752 0
v -1072 -752 0
v -1072 -736 0
v -1056 -736 0
v -1040 -752 0
v -1056 -752 0
v -1056 -736 0
v -1040 -736 0
v -1024 -752 0
v -1040 -752 0
v -1040 -736 0
v -1024 -736 0
v -1008 -752 0
v -1024 -752 0
v -1024 -736 0
v -1008 -736 0
v -992 -752 0
v -1008 -752 0
v -1008 -736 0
v -992 -736 0
v -976 -752 0
v -992 -752 0
v -992 -736 0
v -976 -736 0
v -960 -752 0
v -976 -752 0
v -976 -736 0
v -960 -736 0
v -944 -752 0
v -960 -752 0
v -960 -736 0
v -944 -736 0
v -928 -752 0
v -944 -752 0
v -944 -736 0
v -928 -736 0
v -912 -752 0
v -928 -752 0
v -928 -736 0
v -912 -736 0
v -1120 -768 0
v -1136 -768 0
v -1136 -752 0
v -1120 -752 0
v -1104 -768 0
v -1120 -768 0
v -1120 -752 0
v -1104 -752 0
v -1088 -768 0
v -1104 -768 0
v -1104 -752 0
v -1088 -752 0
v -1072 -768 0
v -1088 -768 0
v -1088 -752 0
v -1072 -752 0
v -1056 -768 0
v -1072 -768 0
v -1072 -752 0
v -1056 -752 0
v -1040 -768 0
v -1056 -768 0
v -1056 -752 0
v -1040 -752 0
v -1024 -768 0
v -1040 -768 0
v -1040 -752 0
v -1024 -752 0
v -1008 -768 0
v -1024 -768 0
v -1024 -752 0
v -1008 -752 0
v -992 -768 0
v -1008 -768 0
v -1008 -752 0
v -992 -752 0
v -976 -768 0
v -992 -768 0
v -992 -752 0
v -976 -752 0
v -960 -768 0
v -976 -768 0
v -976 -752 0
v -960 -752 0
v -944 -768 0
v -960 -768 0
v -960 -752 0
v -944 -752 0
v -928 -768 0
v -944 -768 0
v -944 -752 0
v -928 -752 0
v -912 -768 0
v -928 -768 0
v -928 -752 0
v -912 -752 0
v -1088 -784 0
v -1104 -784 0
v -1104 -768 0
v -1088 -768 0
v -1072 -784 0
v -1088 -784 0
v -1088 -768 0
v -1072 -768 0
v -1056 -784 0
v -1072 -784 0
v -1072 -768 0
v -1056 -768 0
v -1040 -784 0
v -1056 -784 0
v -1056 -768 0
v -1040 -768 0
v -1024 -784 0
v -1040 -784 0
v -1040 -768 0
v -1024 -768 0
v -1008 -784 0
v -1024 -784 0
v -1024 -768 0
v -1008 -768 0
v -992 -784 0
v -1008 -784 0
v -1008 -768 0
v -992 -768 0
v -976 -784 0
v -992 -784 0
v -992 -768 0
v -976 -768 0
v -960 -784 0
v -976 -784 0
v -976 -768 0
v -960 -768 0
v -944 -784 0
v -960 -784 0
v -960 -768 0
v -944 -768 0
v -928 -784 0
v -944 -784 0
v -944 -768 0
v -928 -768 0
v -912 -784 0
v -928 -784 0
v -928 -768 0
v -912 -768 0
v -1072 -800 0
v -1088 -800 0
v -1088 -784 0
v -1072 -784 0
v -1056 -800 0
v -1072 -800 0
v -1072 -784 0
v -1056 -784 0
v -1040 -800 0
v -1056 -800 0
v -1056 -784 0
v -1040 -784 0
v -1024 -800 0
v -1040 -800 0
v -1040 -784 0
v -1024 -784 0
v -1008 -800 0
v -1024 -800 0
v -1024 -784 0
v -1008 -784 0
v -992 -800 0
v -1008 -800 0
v -1008 -784 0
v -992 -784 0
v -976 -800 0
v -992 -800 0
v -992 -784 0
v -976 -784 0
v -960 -800 0
v -976 -800 0
v -976 -784 0
v -960 -784 0
v -944 -800 0
v -960 -800 0
v -960 -784 0
v -944 -784 0
v -928 -800 0
v -944 -800 0
v -944 -784 0
v -928 -784 0
v -912 -800 0
v -928 -800 0
v -928 -784 0
v -912 -784 0
v -1072 -816 0
v -1088 -816 0
v -1088 -800 0
v -1072 -800 0
v -1056 -816 0
v -1072 -816 0
v -1072 -800 0
v -1056 -800 0
v -1040 -816 0
v -1056 -816 0
v -1056 -800 0
v -1040 -800 0
v -1024 -816 0
v -1040 -816 0
v -1040 -800 0
v -1024 -800 0
v -1008 -816 0
v -1024 -816 0
v -1024 -800 0
v -1008 -800 0
v -992 -816 0
v -1008 -816 0
v -1008 -800 0
v -992 -800 0
v -976 -816 0
v -992 -816 0
v -992 -800 0
v -976 -800 0
v -960 -816 0
v -976 -816 0
v -976 -800 0
v -960 -800 0
v -944 -816 0
v -960 -816 0
v -960 -800 0
v -944 -800 0
v -928 -816 0
v -944 -816 0
v -944 -800 0
v -928 -800 0
v -912 -816 0
v -928 -816 0
v -928 -800 0
v -912 -800 0
v -896 -816 0
v -912 -816 0
v -912 -800 0
v -896 -800 0
v -880 -816 0
v -896 -816 0
v -896 -800 0
v -880 -800 0
v -1056 -832 0
v -1072 -832 0
v -1072 -816 0
v -1056 -816 0
v -1040 -832 0
v -1056 -832 0
v -1056 -816 0
v -1040 -816 0
v -1024 -832 0
v -1040 -832 0
v -1040 -816 0
v -1024 -816 0
v -1008 -832 0
v -1024 -832 0
v -1024 -816 0
v -1008 -816 0
v -992 -832 0
v -1008 -832 0
v -1008 -816 0
v -992 -816 0
v -976 -832 0
v -992 -832 0
v -992 -816 0
v -976 -816 0
v -960 -832 0
v -976 -832 0
v -976 -816 0
v -960 -816 0
v -944 -832 0
v -960 -832 0
v -960 -816 0
v -944 -816 0
v -928 -832 0
v -944 -832 0
v -944 -816 0
v -928 -816 0
v -912 -832 0
v -928 -832 0
v -928 -816 0
v -912 -816 0
v -896 -832 0
v -912 -832 0
v -912 -816 0
v -896 -816 0
v -880 -832 0
v -896 -832 0
v -896 -816 0
v -880 -816 0
v -864 -832 0
v -880 -832 0
v -880 -816 0
v -864 -816 0
v -1040 -848 0
v -1056 -848 0
v -1056 -832 0
v -1040 -832 0
v -1024 -848 0
v -1040 -848 0
v -1040 -832 0
v -1024 -832 0
v -1008 -848 0
v -1024 -848 0
v -1024 -832 0
v -1008 -832 0
v -992 -848 0
v -1008 -848 0
v -1008 -832 0
v -992 -832 0
v -976 -848 0
v -992 -848 0
v -992 -832 0
v -976 -832 0
v -960 -848 0
v -976 -848 0
v -976 -832 0
v -960 -832 0
v -944 -848 0
v -960 -848 0
v -960 -832 0
v -944 -832 0
v -928 -848 0
v -944 -848 0
v -944 -832 0
v -928 -832 0
v -912 -848 0
v -928 -848 0
v -928 -832 0
v -912 -832 0
v -896 -848 0
v -912 -848 0
v -912 -832 0
v -896 -832 0
v -880 -848 0
v -896 -848 0
v -896 -832 0
v -880 -832 0
v -864 -848 0
v -880 -848 0
v -880 -832 0
v -864 -832 0
v -1024 -864 0
v -1040 -864 0
v -1040 -848 0
v -1024 -848 0
v -1008 -864 0
v -1024 -864 0
v -1024 -848 0
v -1008 -848 0
v -992 -864 0
v -1008 -864 0
v -1008 -848 0
v -992 -848 0
v -976 -864 0
v -992 -864 0
v -992 -848 0
v -976 -848 0
v -960 -864 0
v -976 -864 0
v -976 -848 0
v -960 -848 0
v -944 -864 0
v -960 -864 0
v -960 -848 0
v -944 -848 0
v -928 -864 0
v -944 -864 0
v -944 -848 0
v -928 -848 0
v -912 -864 0
v -928 -864 0
v -928 -848 0
v -912 -848 0
v -896 -864 0
v -912 -864 0
v -912 -848 0
v -896 -848 0
v -880 -864 0
v -896 -864 0
v -896 -848 0
v -880 -848 0
v -864 -864 0
v -880 -864 0
v -880 -848 0
v -864 -848 0
v -976 -880 0
v -992 -880 0
v -992 -864 0
v -976 -864 0
v -960 -880 0
v -976 -880 0
v -976 -864 0
v -960 -864 0
v -944 -880 0
v -960 -880 0
v -960 -864 0
v -944 -864 0
v -928 -880 0
v -944 -880 0
v -944 -864 0
v -928 -864 0

# Texture cooridinates (Count = 56)
vt 0.1581799 0.6788293
vt 0.1744647 0.6788293
vt 0.1744647 0.7090034
vt 0.1581799 0.7090034
vt 0.1406179 0.6788293
vt 0.1569027 0.6788293
vt 0.1569027 0.7090034
vt 0.1406179 0.7090034
vt 0.123056 0.6788293
vt 0.1393407 0.6788293
vt 0.1393407 0.7090034
vt 0.123056 0.7090034
vt 0.08793199 0.6465099
vt 0.1042168 0.6465099
vt 0.1042168 0.676684
vt 0.08793199 0.676684
vt 0.1406179 0.6465099
vt 0.1569027 0.6465099
vt 0.1569027 0.676684
vt 0.1406179 0.676684
vt 0.123056 0.6465099
vt 0.1393407 0.6465099
vt 0.1393407 0.676684
vt 0.123056 0.676684
vt 0.105494 0.6465099
vt 0.1217788 0.6465099
vt 0.1217788 0.676684
vt 0.105494 0.676684
vt 0.1581799 0.6465099
vt 0.1744647 0.6465099
vt 0.1744647 0.676684
vt 0.1581799 0.676684
vt 0.08793199 0.4202741
vt 0.1042168 0.4202741
vt 0.1042168 0.4504483
vt 0.08793199 0.4504483
vt 0.1581799 0.6141905
vt 0.1744647 0.6141905
vt 0.1744647 0.6443646
vt 0.1581799 0.6443646
vt 0.08793199 0.6788293
vt 0.1042168 0.6788293
vt 0.1042168 0.7090034
vt 0.08793199 0.7090034
vt 0.1406179 0.6141905
vt 0.1569027 0.6141905
vt 0.1569027 0.6443646
vt 0.1406179 0.6443646
vt 0.105494 0.6788293
vt 0.1217788 0.6788293
vt 0.1217788 0.7090034
vt 0.105494 0.7090034
vt 0.123056 0.6141905
vt 0.1393407 0.6141905
vt 0.1393407 0.6443646
vt 0.123056 0.6443646

# Normal
vn 0 0 -1

# Mesh description
g tut_mesh_0002

# Faces
f 1/1/1 2/2/1 3/3/1 4/4/1
f 5/5/1 6/6/1 7/7/1 8/8/1
f 9/5/1 10/6/1 11/7/1 12/8/1
f 13/5/1 14/6/1 15/7/1 16/8/1
f 17/9/1 18/10/1 19/11/1 20/12/1
f 21/1/1 22/2/1 23/3/1 24/4/1
f 25/5/1 26/6/1 27/7/1 28/8/1
f 29/5/1 30/6/1 31/7/1 32/8/1
f 33/13/1 34/14/1 35/15/1 36/16/1
f 37/17/1 38/18/1 39/19/1 40/20/1
f 41/17/1 42/18/1 43/19/1 44/20/1
f 45/17/1 46/18/1 47/19/1 48/20/1
f 49/21/1 50/22/1 51/23/1 52/24/1
f 53/1/1 54/2/1 55/3/1 56/4/1
f 57/13/1 58/14/1 59/15/1 60/16/1
f 61/17/1 62/18/1 63/19/1 64/20/1
f 65/17/1 66/18/1 67/19/1 68/20/1
f 69/17/1 70/18/1 71/19/1 72/20/1
f 73/17/1 74/18/1 75/19/1 76/20/1
f 77/17/1 78/18/1 79/19/1 80/20/1
f 81/17/1 82/18/1 83/19/1 84/20/1
f 85/25/1 86/26/1 87/27/1 88/28/1
f 89/5/1 90/6/1 91/7/1 92/8/1
f 93/9/1 94/10/1 95/11/1 96/12/1
f 97/1/1 98/2/1 99/3/1 100/4/1
f 101/13/1 102/14/1 103/15/1 104/16/1
f 105/17/1 106/18/1 107/19/1 108/20/1
f 109/17/1 110/18/1 111/19/1 112/20/1
f 113/17/1 114/18/1 115/19/1 116/20/1
f 117/17/1 118/18/1 119/19/1 120/20/1
f 121/17/1 122/18/1 123/19/1 124/20/1
f 125/17/1 126/18/1 127/19/1 128/20/1
f 129/17/1 130/18/1 131/19/1 132/20/1
f 133/17/1 134/18/1 135/19/1 136/20/1
f 137/17/1 138/18/1 139/19/1 140/20/1
f 141/21/1 142/22/1 143/23/1 144/24/1
f 145/29/1 146/30/1 147/31/1 148/32/1
f 149/17/1 150/18/1 151/19/1 152/20/1
f 153/17/1 154/18/1 155/19/1 156/20/1
f 157/17/1 158/18/1 159/19/1 160/20/1
f 161/17/1 162/18/1 163/19/1 164/20/1
f 165/17/1 166/18/1 167/19/1 168/20/1
f 169/17/1 170/18/1 171/19/1 172/20/1
f 173/17/1 174/18/1 175/19/1 176/20/1
f 177/17/1 178/18/1 179/19/1 180/20/1
f 181/17/1 182/18/1 183/19/1 184/20/1
f 185/17/1 186/18/1 187/19/1 188/20/1
f 189/21/1 190/22/1 191/23/1 192/24/1
f 193/29/1 194/30/1 195/31/1 196/32/1
f 197/17/1 198/18/1 199/19/1 200/20/1
f 201/17/1 202/18/1 203/19/1 204/20/1
f 205/17/1 206/18/1 207/19/1 208/20/1
f 209/17/1 210/18/1 211/19/1 212/20/1
f 213/17/1 214/18/1 215/19/1 216/20/1
f 217/17/1 218/18/1 219/19/1 220/20/1
f 221/17/1 222/18/1 223/19/1 224/20/1
f 225/17/1 226/18/1 227/19/1 228/20/1
f 229/17/1 230/18/1 231/19/1 232/20/1
f 233/17/1 234/18/1 235/19/1 236/20/1
f 237/21/1 238/22/1 239/23/1 240/24/1
f 241/1/1 242/2/1 243/3/1 244/4/1
f 245/13/1 246/14/1 247/15/1 248/16/1
f 249/17/1 250/18/1 251/19/1 252/20/1
f 253/17/1 254/18/1 255/19/1 256/20/1
f 257/17/1 258/18/1 259/19/1 260/20/1
f 261/17/1 262/18/1 263/19/1 264/20/1
f 265/17/1 266/18/1 267/19/1 268/20/1
f 269/17/1 270/18/1 271/19/1 272/20/1
f 273/17/1 274/18/1 275/19/1 276/20/1
f 277/17/1 278/18/1 279/19/1 280/20/1
f 281/17/1 282/18/1 283/19/1 284/20/1
f 285/17/1 286/18/1 287/19/1 288/20/1
f 289/21/1 290/22/1 291/23/1 292/24/1
f 293/29/1 294/30/1 295/31/1 296/32/1
f 297/17/1 298/18/1 299/19/1 300/20/1
f 301/17/1 302/18/1 303/19/1 304/20/1
f 305/17/1 306/18/1 307/19/1 308/20/1
f 309/17/1 310/18/1 311/19/1 312/20/1
f 313/17/1 314/18/1 315/19/1 316/20/1
f 317/17/1 318/18/1 319/19/1 320/20/1
f 321/17/1 322/18/1 323/19/1 324/20/1
f 325/17/1 326/18/1 327/19/1 328/20/1
f 329/17/1 330/18/1 331/19/1 332/20/1
f 333/17/1 334/18/1 335/19/1 336/20/1
f 337/17/1 338/18/1 339/19/1 340/20/1
f 341/21/1 342/22/1 343/23/1 344/24/1
f 345/29/1 346/30/1 347/31/1 348/32/1
f 349/17/1 350/18/1 351/19/1 352/20/1
f 353/17/1 354/18/1 355/19/1 356/20/1
f 357/17/1 358/18/1 359/19/1 360/20/1
f 361/17/1 362/18/1 363/19/1 364/20/1
f 365/17/1 366/18/1 367/19/1 368/20/1
f 369/17/1 370/18/1 371/19/1 372/20/1
f 373/17/1 374/18/1 375/19/1 376/20/1
f 377/17/1 378/18/1 379/19/1 380/20/1
f 381/17/1 382/18/1 383/19/1 384/20/1
f 385/17/1 386/18/1 387/19/1 388/20/1
f 389/17/1 390/18/1 391/19/1 392/20/1
f 393/21/1 394/22/1 395/23/1 396/24/1
f 397/33/1 398/34/1 399/35/1 400/36/1
f 401/37/1 402/38/1 403/39/1 404/40/1
f 405/41/1 406/42/1 407/43/1 408/44/1
f 409/17/1 410/18/1 411/19/1 412/20/1
f 413/17/1 414/18/1 415/19/1 416/20/1
f 417/17/1 418/18/1 419/19/1 420/20/1
f 421/17/1 422/18/1 423/19/1 424/20/1
f 425/17/1 426/18/1 427/19/1 428/20/1
f 429/17/1 430/18/1 431/19/1 432/20/1
f 433/17/1 434/18/1 435/19/1 436/20/1
f 437/17/1 438/18/1 439/19/1 440/20/1
f 441/17/1 442/18/1 443/19/1 444/20/1
f 445/17/1 446/18/1 447/19/1 448/20/1
f 449/21/1 450/22/1 451/23/1 452/24/1
f 453/37/1 454/38/1 455/39/1 456/40/1
f 457/41/1 458/42/1 459/43/1 460/44/1
f 461/17/1 462/18/1 463/19/1 464/20/1
f 465/17/1 466/18/1 467/19/1 468/20/1
f 469/17/1 470/18/1 471/19/1 472/20/1
f 473/17/1 474/18/1 475/19/1 476/20/1
f 477/17/1 478/18/1 479/19/1 480/20/1
f 481/17/1 482/18/1 483/19/1 484/20/1
f 485/17/1 486/18/1 487/19/1 488/20/1
f 489/17/1 490/18/1 491/19/1 492/20/1
f 493/17/1 494/18/1 495/19/1 496/20/1
f 497/21/1 498/22/1 499/23/1 500/24/1
f 501/29/1 502/30/1 503/31/1 504/32/1
f 505/17/1 506/18/1 507/19/1 508/20/1
f 509/17/1 510/18/1 511/19/1 512/20/1
f 513/17/1 514/18/1 515/19/1 516/20/1
f 517/17/1 518/18/1 519/19/1 520/20/1
f 521/17/1 522/18/1 523/19/1 524/20/1
f 525/17/1 526/18/1 527/19/1 528/20/1
f 529/17/1 530/18/1 531/19/1 532/20/1
f 533/17/1 534/18/1 535/19/1 536/20/1
f 537/17/1 538/18/1 539/19/1 540/20/1
f 541/21/1 542/22/1 543/23/1 544/24/1
f 545/37/1 546/38/1 547/39/1 548/40/1
f 549/41/1 550/42/1 551/43/1 552/44/1
f 553/17/1 554/18/1 555/19/1 556/20/1
f 557/17/1 558/18/1 559/19/1 560/20/1
f 561/17/1 562/18/1 563/19/1 564/20/1
f 565/17/1 566/18/1 567/19/1 568/20/1
f 569/17/1 570/18/1 571/19/1 572/20/1
f 573/17/1 574/18/1 575/19/1 576/20/1
f 577/17/1 578/18/1 579/19/1 580/20/1
f 581/17/1 582/18/1 583/19/1 584/20/1
f 585/25/1 586/26/1 587/27/1 588/28/1
f 589/5/1 590/6/1 591/7/1 592/8/1
f 593/9/1 594/10/1 595/11/1 596/12/1
f 597/37/1 598/38/1 599/39/1 600/40/1
f 601/41/1 602/42/1 603/43/1 604/44/1
f 605/17/1 606/18/1 607/19/1 608/20/1
f 609/17/1 610/18/1 611/19/1 612/20/1
f 613/17/1 614/18/1 615/19/1 616/20/1
f 617/17/1 618/18/1 619/19/1 620/20/1
f 621/17/1 622/18/1 623/19/1 624/20/1
f 625/17/1 626/18/1 627/19/1 628/20/1
f 629/17/1 630/18/1 631/19/1 632/20/1
f 633/17/1 634/18/1 635/19/1 636/20/1
f 637/17/1 638/18/1 639/19/1 640/20/1
f 641/25/1 642/26/1 643/27/1 644/28/1
f 645/9/1 646/10/1 647/11/1 648/12/1
f 649/37/1 650/38/1 651/39/1 652/40/1
f 653/41/1 654/42/1 655/43/1 656/44/1
f 657/17/1 658/18/1 659/19/1 660/20/1
f 661/17/1 662/18/1 663/19/1 664/20/1
f 665/17/1 666/18/1 667/19/1 668/20/1
f 669/17/1 670/18/1 671/19/1 672/20/1
f 673/17/1 674/18/1 675/19/1 676/20/1
f 677/17/1 678/18/1 679/19/1 680/20/1
f 681/17/1 682/18/1 683/19/1 684/20/1
f 685/17/1 686/18/1 687/19/1 688/20/1
f 689/17/1 690/18/1 691/19/1 692/20/1
f 693/21/1 694/22/1 695/23/1 696/24/1
f 697/37/1 698/38/1 699/39/1 700/40/1
f 701/45/1 702/46/1 703/47/1 704/48/1
f 705/45/1 706/46/1 707/47/1 708/48/1
f 709/41/1 710/42/1 711/43/1 712/44/1
f 713/17/1 714/18/1 715/19/1 716/20/1
f 717/17/1 718/18/1 719/19/1 720/20/1
f 721/49/1 722/50/1 723/51/1 724/52/1
f 725/45/1 726/46/1 727/47/1 728/48/1
f 729/45/1 730/46/1 731/47/1 732/48/1
f 733/45/1 734/46/1 735/47/1 736/48/1
f 737/53/1 738/54/1 739/55/1 740/56/1
f 741/37/1 742/38/1 743/39/1 744/40/1
f 745/45/1 746/46/1 747/47/1 748/48/1
f 749/45/1 750/46/1 751/47/1 752/48/1
f 753/53/1 754/54/1 755/55/1 756/56/1

