# Tiled2Unity generated file. Do not modify by hand.
# Wavefront file for 'tut_mesh_0003.obj'

# Vertices (Count = 88)
v -976 -608 0
v -992 -608 0
v -992 -592 0
v -976 -592 0
v -976 -624 0
v -992 -624 0
v -992 -608 0
v -976 -608 0
v -928 -624 0
v -944 -624 0
v -944 -608 0
v -928 -608 0
v -880 -624 0
v -896 -624 0
v -896 -608 0
v -880 -608 0
v -816 -624 0
v -832 -624 0
v -832 -608 0
v -816 -608 0
v -1040 -640 0
v -1056 -640 0
v -1056 -624 0
v -1040 -624 0
v -880 -640 0
v -896 -640 0
v -896 -624 0
v -880 -624 0
v -816 -640 0
v -832 -640 0
v -832 -624 0
v -816 -624 0
v -1040 -656 0
v -1056 -656 0
v -1056 -640 0
v -1040 -640 0
v -992 -656 0
v -1008 -656 0
v -1008 -640 0
v -992 -640 0
v -1040 -688 0
v -1056 -688 0
v -1056 -672 0
v -1040 -672 0
v -912 -688 0
v -928 -688 0
v -928 -672 0
v -912 -672 0
v -1040 -704 0
v -1056 -704 0
v -1056 -688 0
v -1040 -688 0
v -944 -704 0
v -960 -704 0
v -960 -688 0
v -944 -688 0
v -944 -720 0
v -960 -720 0
v -960 -704 0
v -944 -704 0
v -976 -768 0
v -992 -768 0
v -992 -752 0
v -976 -752 0
v -1056 -784 0
v -1072 -784 0
v -1072 -768 0
v -1056 -768 0
v -1056 -800 0
v -1072 -800 0
v -1072 -784 0
v -1056 -784 0
v -944 -816 0
v -960 -816 0
v -960 -800 0
v -944 -800 0
v -944 -832 0
v -960 -832 0
v -960 -816 0
v -944 -816 0
v -864 -848 0
v -880 -848 0
v -880 -832 0
v -864 -832 0
v -864 -864 0
v -880 -864 0
v -880 -848 0
v -864 -848 0

# Texture cooridinates (Count = 12)
vt 0.2811138 0.6465099
vt 0.2973986 0.6465099
vt 0.2973986 0.676684
vt 0.2811138 0.676684
vt 0.2811138 0.6141905
vt 0.2973986 0.6141905
vt 0.2973986 0.6443646
vt 0.2811138 0.6443646
vt 0.2284279 0.6788293
vt 0.2447126 0.6788293
vt 0.2447126 0.7090034
vt 0.2284279 0.7090034

# Normal
vn 0 0 -1

# Mesh description
g tut_mesh_0003

# Faces
f 1/1/1 2/2/1 3/3/1 4/4/1
f 5/5/1 6/6/1 7/7/1 8/8/1
f 9/9/1 10/10/1 11/11/1 12/12/1
f 13/1/1 14/2/1 15/3/1 16/4/1
f 17/1/1 18/2/1 19/3/1 20/4/1
f 21/1/1 22/2/1 23/3/1 24/4/1
f 25/5/1 26/6/1 27/7/1 28/8/1
f 29/5/1 30/6/1 31/7/1 32/8/1
f 33/5/1 34/6/1 35/7/1 36/8/1
f 37/9/1 38/10/1 39/11/1 40/12/1
f 41/1/1 42/2/1 43/3/1 44/4/1
f 45/9/1 46/10/1 47/11/1 48/12/1
f 49/5/1 50/6/1 51/7/1 52/8/1
f 53/1/1 54/2/1 55/3/1 56/4/1
f 57/5/1 58/6/1 59/7/1 60/8/1
f 61/9/1 62/10/1 63/11/1 64/12/1
f 65/1/1 66/2/1 67/3/1 68/4/1
f 69/5/1 70/6/1 71/7/1 72/8/1
f 73/1/1 74/2/1 75/3/1 76/4/1
f 77/5/1 78/6/1 79/7/1 80/8/1
f 81/1/1 82/2/1 83/3/1 84/4/1
f 85/5/1 86/6/1 87/7/1 88/8/1

