# Tiled2Unity generated file. Do not modify by hand.
# Wavefront file for 'spawn_mesh_0002.obj'

# Vertices (Count = 8)
v -1440 -1216 0
v -1472 -1216 0
v -1472 -1184 0
v -1440 -1184 0
v -1408 -1216 0
v -1440 -1216 0
v -1440 -1184 0
v -1408 -1184 0

# Texture cooridinates (Count = 8)
vt 0.7501221 0.5556777
vt 0.8332112 0.5556777
vt 0.8332112 0.6665446
vt 0.7501221 0.6665446
vt 0.7501221 0.3334554
vt 0.8332112 0.3334554
vt 0.8332112 0.4443223
vt 0.7501221 0.4443223

# Normal
vn 0 0 -1

# Mesh description
g spawn_mesh_0002

# Faces
f 1/1/1 2/2/1 3/3/1 4/4/1
f 5/5/1 6/6/1 7/7/1 8/8/1

